<svg xmlns="http://www.w3.org/2000/svg" width="245" height="45" fill="none"><path fill="currentColor" fill-rule="evenodd" d="M25.725.046c-.187.047-1.149.211-2.11.352-2.298.375-5.019 1.244-7.481 2.37-8.49 3.919-14.422 11.944-15.9 21.47-.469 3.121-.234 5.444.704 6.876.54.82 1.642 1.431 1.993 1.103.07-.07-.07-.94-.305-1.925-.515-2.229-.304-4.06.939-7.767 2.72-8.118 7.973-13.867 15.242-16.707 7.13-2.792 12.945-2.159 17.026 1.854 1.524 1.478 4.033 5.115 7.715 11.146 5.839 9.574 12.218 15.064 20.754 17.927 2.978.986 5.698 1.314 8.277.962 6.567-.868 10.319-4.529 17.753-17.364 1.383-2.393 3.26-5.326 4.15-6.5 1.783-2.393 4.456-4.716 6.426-5.631 3.377-1.549 8.208-2.042 10.975-1.15 3.564 1.173 5.112 3.097 10.388 12.93 5.933 11.051 11.116 15.932 17.33 16.26 3.471.165 5.839-.774 8.396-3.402 2.274-2.3 3.283-4.224 5.862-11.099 3.072-8.166 4.432-10.372 7.504-12.084 3.119-1.737 7.833-2.323 11.397-1.432 5.23 1.314 14.493 7.767 23.099 16.097 7.458 7.204 9.123 8.588 12.546 10.325.962.493 2.65 1.173 3.752 1.549 1.876.633 2.228.657 5.98.68 4.69 0 6.215-.329 10.084-2.23 1.29-.61 2.345-1.102 2.369-1.102.023.023-.071.939-.212 1.994-.304 2.511.047 6.078.774 7.744.587 1.337 1.009 1.642 1.548 1.032.68-.727 3.377-5.044 5.206-8.26.962-1.736 2.556-4.481 3.494-6.1 2.838-4.787 3.236-5.726 3.236-7.509 0-2.745-1.407-4.388-4.69-5.42-.891-.282-3.916-1.408-6.683-2.511-4.479-1.737-5.183-1.948-6.238-1.877-.727.07-1.477.305-1.923.61-.914.657-1.571 2.3-1.36 3.402.352 1.924 1.806 3.027 6.355 4.857 3.213 1.315 3.166 1.244 2.462 1.995-1.055 1.126-4.995 3.567-7.152 4.411-6.777 2.699-12.335 1.22-19.464-5.185-1.29-1.15-3.564-3.192-5.042-4.506-9.357-8.353-18.667-14.36-24.857-16.003-2.228-.587-7.2-.821-9.615-.446-3.94.61-8.302 2.605-10.905 4.975-2.579 2.37-4.197 5.21-7.246 12.718-2.275 5.608-2.978 6.992-4.268 8.377-1.97 2.112-3.494 2.37-6.121 1.056-3.001-1.502-5.792-4.904-10.154-12.437-4.268-7.32-6.425-10.183-9.286-12.225-7.481-5.35-19.769-2.956-26.663 5.21-1.642 1.947-3.049 4.035-6.402 9.456-6.52 10.583-10.154 13.586-15.853 13.07-3.447-.305-8.677-2.534-12.17-5.162-3.683-2.793-6.239-5.773-11.116-13.047-4.41-6.594-6.379-8.893-9.1-10.77C35.599 1.946 33.277.937 31.519.514c-1.454-.328-5.136-.633-5.793-.47Z" clip-rule="evenodd"/></svg>