<?xml version="1.0" standalone="no"?>
<!DOCTYPE svg PUBLIC "-//W3C//DTD SVG 20010904//EN"
 "http://www.w3.org/TR/2001/REC-SVG-20010904/DTD/svg10.dtd">
<svg version="1.0" xmlns="http://www.w3.org/2000/svg"
 width="866.000000pt" height="650.000000pt" viewBox="0 0 866.000000 650.000000"
 preserveAspectRatio="xMidYMid meet">

<g transform="translate(0.000000,650.000000) scale(0.100000,-0.100000)"
fill="#000000" stroke="none">
<path d="M2460 3245 l0 -1965 1870 0 1870 0 0 1965 0 1965 -1870 0 -1870 0 0
-1965z m3598 3 l2 -1818 -1725 0 -1725 0 0 1820 0 1820 1723 -2 1722 -3 3
-1817z"/>
<path d="M3865 4592 c-104 -158 -388 -588 -632 -955 -243 -368 -452 -694 -465
-725 -18 -47 -22 -76 -22 -172 0 -104 2 -122 29 -187 l29 -73 94 0 c86 0 94 2
87 18 -20 50 -45 171 -45 216 0 67 22 152 60 227 16 32 307 476 646 986 339
511 619 934 621 941 4 9 -21 12 -103 12 l-109 0 -190 -288z"/>
<path d="M4429 4872 c-115 -3 -115 -3 -132 -31 -9 -15 -14 -31 -12 -35 3 -3 2
-4 -1 -2 -6 5 -461 -669 -465 -689 -1 -5 -9 -15 -17 -21 -8 -6 -12 -16 -8 -23
5 -7 2 -10 -6 -9 -7 2 -12 -5 -12 -14 1 -10 -1 -16 -5 -14 -8 5 -134 -183
-134 -201 0 -7 -3 -11 -5 -8 -9 8 -53 -59 -47 -73 2 -7 1 -11 -4 -8 -9 6 -104
-132 -104 -151 0 -7 -3 -11 -5 -8 -9 9 -73 -95 -66 -107 4 -6 3 -8 -3 -5 -11
7 -86 -99 -86 -120 0 -7 -3 -11 -5 -8 -9 9 -73 -95 -66 -107 4 -6 3 -9 -2 -5
-11 6 -87 -99 -87 -120 0 -7 -3 -11 -5 -8 -3 3 -25 -25 -49 -62 -109 -169
-139 -280 -111 -421 9 -44 22 -92 29 -107 14 -27 14 -27 137 -28 67 -1 122 2
122 6 0 4 -8 24 -19 45 -36 71 -44 208 -17 290 10 28 51 101 91 163 41 62 71
117 68 123 -3 6 -2 8 2 3 5 -4 40 40 78 98 61 93 68 107 56 123 -13 15 -12 16
3 4 15 -12 26 0 103 117 47 73 83 137 79 143 -4 7 -3 8 4 4 7 -4 26 15 48 51
20 32 81 125 136 207 55 82 97 155 94 162 -3 8 0 13 7 11 11 -2 218 294 211
302 -2 2 3 9 12 16 9 6 17 23 17 37 1 14 7 24 13 21 12 -4 81 103 76 119 -1 5
1 7 6 4 5 -3 15 7 23 22 7 15 24 40 36 55 13 16 20 34 16 40 -3 7 -2 9 2 4 11
-9 86 103 78 116 -3 6 -1 7 4 4 6 -4 18 8 27 27 8 18 22 39 31 46 20 16 19 26
-2 25 -10 0 -70 -1 -134 -3z"/>
<path d="M4406 4543 c-122 -186 -348 -527 -501 -758 -700 -1056 -639 -952
-633 -1093 3 -78 9 -108 30 -154 l27 -58 115 0 c64 0 116 2 116 5 0 3 -12 23
-26 44 -45 68 -69 199 -48 255 6 14 86 16 810 16 442 0 804 2 804 5 0 3 -9 24
-20 45 l-20 40 -761 0 c-690 0 -761 1 -755 16 3 9 6 18 6 20 0 2 331 4 735 4
404 0 735 2 735 5 0 3 -21 37 -47 75 l-46 70 -634 -2 c-638 -3 -659 -2 -620
31 10 8 193 12 620 13 l607 3 -30 45 -30 45 -543 5 -544 5 66 100 c60 91 807
1220 957 1446 35 53 64 99 64 102 0 4 -47 7 -105 7 l-105 0 -224 -337z"/>
<path d="M4711 4542 l-51 -79 113 -169 c685 -1021 871 -1303 897 -1354 66
-130 73 -248 25 -389 l-24 -71 93 0 94 0 20 48 c33 78 42 123 42 219 0 99 -19
168 -67 248 -57 93 -1079 1624 -1084 1625 -4 0 -30 -35 -58 -78z"/>
<path d="M4616 4395 c-9 -14 -14 -31 -10 -37 4 -6 3 -8 -3 -5 -10 6 -93 -111
-93 -132 0 -5 8 -15 18 -20 9 -6 14 -11 9 -11 -9 0 212 -333 225 -338 4 -2 8
-8 8 -13 0 -14 86 -140 92 -134 2 3 5 -1 5 -8 0 -7 113 -183 252 -391 140
-208 267 -408 283 -443 41 -87 46 -164 18 -263 -11 -41 -23 -84 -26 -95 -5
-19 -1 -20 113 -18 135 3 132 1 158 98 17 68 19 169 4 235 -13 58 -69 171 -81
164 -4 -3 -8 -2 -7 3 3 17 -1 32 -13 45 -7 7 -19 25 -26 39 -8 15 -26 39 -40
55 -15 15 -27 33 -27 39 0 10 -62 105 -75 115 -4 3 -9 13 -13 23 -4 11 -12 15
-18 11 -7 -4 -9 -3 -5 4 3 6 -26 59 -65 119 -64 95 -108 155 -84 114 5 -10 4
-12 -4 -7 -6 4 -9 11 -6 16 7 12 -41 81 -50 72 -5 -4 -5 -2 -2 4 7 12 -36 77
-45 69 -2 -3 -5 1 -5 8 0 22 -45 87 -56 80 -5 -3 -7 -1 -3 5 3 6 -5 28 -19 49
-27 38 -45 59 -30 34 5 -10 4 -12 -4 -7 -6 4 -9 11 -7 15 6 9 -29 63 -36 56
-2 -3 -5 1 -5 7 0 18 -81 139 -107 161 -11 10 -15 16 -8 12 8 -4 3 9 -9 28
-13 19 -26 34 -30 32 -3 -2 -6 1 -6 8 0 12 -139 227 -147 227 -2 0 -11 -11
-20 -25z"/>
<path d="M4423 4111 l-51 -78 369 -554 c204 -305 384 -581 402 -614 29 -55 32
-68 32 -155 0 -97 -13 -143 -61 -207 l-16 -23 114 0 c113 0 114 0 130 28 47
80 62 228 31 317 -10 29 -195 317 -455 707 -241 362 -439 658 -440 658 -2 0
-26 -36 -55 -79z"/>
<path d="M2800 2015 l0 -395 1535 0 1535 0 -2 393 -3 392 -1532 3 -1533 2 0
-395z m882 257 c10 -20 76 -151 148 -291 71 -139 130 -257 130 -262 0 -5 -60
-9 -134 -9 l-134 0 -12 30 -12 30 -148 0 -148 0 -12 -30 -12 -30 -134 0 c-74
0 -134 2 -134 6 0 5 163 328 250 497 l51 97 142 0 142 -1 17 -37z m598 -172
l0 -210 115 0 115 0 0 -90 0 -90 -255 0 -255 0 0 300 0 300 140 0 140 0 0
-210z m820 178 c105 -62 155 -148 154 -268 0 -89 -23 -146 -86 -211 -76 -78
-100 -84 -370 -87 l-238 -4 0 302 0 301 248 -3 247 -3 45 -27z m490 -268 l0
-301 -135 3 c-74 2 -135 6 -135 11 0 4 0 138 0 297 l0 290 135 0 135 0 0 -300z"/>
<path d="M3492 2005 c-12 -25 -22 -50 -22 -55 0 -6 25 -10 55 -10 l55 0 -27
55 c-15 30 -30 55 -33 55 -3 0 -16 -20 -28 -45z"/>
<path d="M4830 2017 l0 -125 26 -5 c91 -17 174 78 144 166 -17 54 -52 80 -115
85 l-55 4 0 -125z"/>
</g>
</svg>
