<?xml version="1.0" standalone="no"?>
<!DOCTYPE svg PUBLIC "-//W3C//DTD SVG 20010904//EN"
 "http://www.w3.org/TR/2001/REC-SVG-20010904/DTD/svg10.dtd">
<svg version="1.0" xmlns="http://www.w3.org/2000/svg"
 width="900.000000pt" height="900.000000pt" viewBox="0 0 900.000000 900.000000"
 preserveAspectRatio="xMidYMid meet">

<g transform="translate(0.000000,900.000000) scale(0.100000,-0.100000)"
fill="#000000" stroke="none">
<path d="M5139 8238 c-1 -1 -6 -34 -13 -73 -8 -53 -15 -71 -28 -73 -10 -2 -65
20 -122 50 -58 29 -108 49 -112 45 -10 -10 8 -46 72 -143 34 -50 54 -90 50
-99 -3 -9 -20 -23 -36 -33 -95 -53 -94 -51 -75 -72 10 -11 33 -24 51 -30 19
-6 43 -23 53 -36 27 -35 15 -58 -60 -113 -75 -55 -75 -73 0 -83 29 -3 60 -13
68 -21 16 -15 17 -11 -66 -174 -17 -34 -31 -64 -31 -67 0 -18 34 2 103 59 43
36 84 65 91 65 22 0 34 -23 41 -76 12 -88 27 -93 71 -23 13 21 32 39 41 39 10
0 60 -21 111 -47 90 -46 98 -48 192 -51 153 -6 271 37 361 129 120 123 165
293 124 468 -65 272 -353 409 -658 311 -52 -16 -103 -30 -114 -30 -11 0 -41
18 -67 41 -25 22 -47 39 -47 37z m461 -109 c133 -21 222 -109 254 -249 54
-235 -43 -437 -233 -486 -51 -13 -74 -13 -134 -4 -111 17 -199 78 -176 122 13
25 34 23 105 -11 93 -44 104 -46 104 -21 0 12 -7 44 -16 71 -23 70 -16 75 88
61 144 -21 146 -19 53 77 -36 37 -65 75 -65 83 0 10 18 23 48 34 57 22 112 53
112 64 0 13 -24 18 -114 26 -116 9 -124 16 -91 78 33 62 23 70 -59 45 -68 -21
-131 -25 -141 -8 -26 40 46 103 135 118 30 5 57 9 60 10 3 0 34 -4 70 -10z
m-350 -199 c26 -55 37 -59 93 -35 46 19 52 8 21 -39 -30 -44 -24 -57 35 -75
38 -11 59 -27 49 -37 -3 -2 -26 -8 -52 -13 -26 -5 -49 -11 -52 -14 -3 -3 4
-24 16 -47 12 -23 19 -44 16 -47 -3 -3 -28 0 -57 7 l-52 13 -36 -42 c-20 -23
-39 -41 -43 -41 -5 0 -8 20 -8 44 0 70 -5 76 -66 76 -30 0 -54 3 -54 7 0 4 19
27 43 51 l42 43 -37 32 c-56 49 -54 62 12 62 l55 0 13 40 c20 63 21 65 30 65
5 0 19 -22 32 -50z"/>
<path d="M1778 8218 c-62 -22 -23 -54 110 -88 176 -44 176 -53 -8 -169 -99
-62 -140 -98 -140 -122 0 -23 28 -29 140 -29 119 -1 238 -14 253 -29 19 -19
-15 -70 -143 -211 -128 -142 -200 -240 -200 -271 0 -10 9 -23 19 -29 27 -14
90 8 220 77 175 94 235 123 254 123 32 0 41 -42 29 -132 -17 -121 -16 -172 6
-191 10 -10 25 -17 32 -17 17 0 97 47 107 63 14 21 74 67 88 67 24 0 35 -35
55 -180 22 -156 39 -203 73 -198 32 5 53 50 93 203 62 234 71 242 150 151 77
-89 94 -84 119 32 31 150 41 150 235 -13 225 -187 283 -155 174 96 -95 223
-99 233 -95 277 2 24 75 12 228 -38 168 -55 242 -66 269 -38 16 15 16 22 4 58
-14 41 -61 98 -217 259 -88 91 -120 139 -110 164 9 24 72 59 178 100 52 21
104 44 115 52 19 15 19 15 0 30 -25 19 -82 19 -215 -1 -175 -26 -311 -80 -311
-124 0 -11 49 -71 111 -136 112 -119 147 -169 136 -198 -12 -32 -41 -29 -176
17 -75 26 -144 47 -154 47 -9 0 -24 -11 -33 -25 -21 -32 -10 -80 52 -223 85
-196 68 -211 -82 -70 -70 67 -126 107 -146 108 -10 0 -19 -1 -19 -2 -1 -2 -4
-50 -8 -108 -6 -101 -7 -105 -29 -105 -18 0 -33 16 -65 70 -23 38 -50 71 -59
73 -18 4 -35 -37 -69 -165 -21 -84 -41 -115 -60 -96 -17 17 -29 83 -29 165 0
42 -4 88 -10 103 -9 23 -12 25 -32 14 -25 -14 -42 -33 -103 -122 -46 -67 -77
-81 -83 -38 -2 13 4 63 13 111 21 108 18 144 -13 148 -12 2 -70 -19 -127 -47
-58 -28 -114 -51 -125 -51 -41 0 -20 40 63 123 102 102 123 126 131 154 10 31
-11 39 -146 57 -65 8 -126 20 -138 26 -46 25 -16 66 107 143 70 45 100 78 88
97 -13 20 -70 43 -144 56 -88 15 -323 17 -363 2z"/>
<path d="M6784 8213 c-58 -29 -68 -61 -69 -216 l0 -139 -29 -25 c-23 -19 -36
-24 -60 -19 -67 13 -85 89 -46 201 11 32 20 66 20 76 0 38 -24 69 -74 94 -45
22 -62 25 -167 25 -122 0 -269 -22 -302 -45 -18 -13 -16 -14 24 -25 135 -36
214 -75 280 -137 27 -25 49 -49 49 -53 0 -5 -27 -11 -60 -15 -68 -8 -188 -37
-215 -52 -17 -10 -17 -11 2 -21 11 -6 62 -25 114 -41 52 -17 115 -44 141 -60
81 -52 102 -129 49 -182 -58 -57 -168 -33 -250 55 -42 45 -49 35 -44 -61 5
-107 -10 -138 -87 -180 -27 -16 -50 -31 -50 -34 0 -11 40 -18 182 -31 106 -9
167 -9 270 0 284 25 444 105 520 260 31 64 33 73 32 177 0 87 -6 131 -27 210
-29 109 -28 138 12 193 l20 29 -72 16 c-87 21 -122 21 -163 0z m116 -74 c15
-27 5 -66 -19 -79 -28 -14 -69 4 -77 34 -9 39 11 66 51 66 25 0 37 -6 45 -21z
m-50 -292 c48 -37 65 -117 39 -184 -24 -64 -113 -128 -209 -151 -69 -16 -220
-26 -220 -14 0 5 17 13 38 17 58 11 161 64 210 109 51 47 89 119 98 189 7 48
17 56 44 34z"/>
<path d="M2495 8215 c-5 -2 -22 -6 -37 -9 -37 -8 -36 -23 2 -31 40 -9 71 -49
61 -78 -7 -22 -63 -54 -154 -90 -95 -38 -41 -60 87 -36 32 5 70 7 86 4 54 -12
48 -50 -25 -142 -44 -57 -57 -93 -33 -93 6 0 37 20 67 43 92 72 114 79 150 50
18 -15 24 -35 32 -113 5 -52 14 -99 20 -105 16 -15 36 19 50 84 18 87 38 130
64 137 40 10 65 -6 111 -69 42 -57 71 -86 85 -87 20 -1 15 40 -12 105 -36 87
-40 132 -14 151 24 18 46 18 128 -2 109 -27 105 1 -12 79 -108 72 -116 114
-29 158 48 25 41 33 -39 44 -86 11 -127 -1 -187 -56 -46 -42 -60 -49 -95 -49
-36 0 -49 7 -89 44 -27 25 -60 50 -76 55 -25 10 -118 14 -141 6z"/>
<path d="M3741 8019 c-36 -4 -71 -15 -80 -23 -13 -14 -13 -18 8 -39 31 -34
112 -76 151 -79 27 -2 36 2 47 22 21 41 17 96 -9 114 -24 17 -23 17 -117 5z"/>
<path d="M1836 7703 c-61 -22 -88 -65 -84 -133 3 -41 5 -45 28 -42 59 6 217
149 193 173 -19 19 -87 20 -137 2z"/>
<path d="M3500 7480 c0 -20 86 -177 110 -200 3 -3 31 -40 63 -82 78 -103 122
-141 146 -128 21 11 51 79 51 116 0 49 -17 69 -155 178 -80 63 -181 126 -203
126 -7 0 -12 -5 -12 -10z"/>
<path d="M2013 7230 c-66 -40 -82 -127 -38 -209 39 -70 117 -115 226 -128 44
-5 47 -4 53 23 13 51 7 156 -11 207 -40 111 -145 159 -230 107z"/>
<path d="M6636 7220 c-61 -23 -97 -30 -152 -30 l-71 0 14 -47 c33 -106 58
-124 151 -104 162 35 267 135 206 195 -22 23 -58 19 -148 -14z"/>
<path d="M6897 7212 c15 -115 -141 -240 -327 -261 -69 -8 -88 -13 -103 -32
-41 -51 4 -108 90 -116 102 -10 237 39 326 117 53 47 107 147 107 197 0 46
-32 106 -65 121 -35 16 -34 17 -28 -26z"/>
<path d="M5065 7205 c-70 -35 -121 -130 -107 -200 l5 -26 28 34 c55 67 151 87
218 46 l33 -20 -21 -20 c-30 -28 -27 -61 8 -82 16 -9 43 -34 61 -54 l33 -37
39 43 c45 52 78 147 78 228 l0 54 -44 -6 c-36 -6 -51 -3 -73 12 -15 11 -43 25
-62 31 -49 17 -160 15 -196 -3z"/>
<path d="M5823 7175 c-58 -20 -122 -35 -174 -39 l-81 -8 4 -49 c10 -105 110
-244 217 -302 160 -88 417 -69 524 38 21 22 27 37 27 72 0 90 -74 248 -127
272 -18 8 -35 6 -76 -9 -28 -10 -61 -20 -72 -21 -34 -5 -73 10 -80 30 -16 51
-54 55 -162 16z m18 -171 c57 -20 164 -40 262 -49 42 -4 80 -11 82 -16 8 -12
-34 -47 -73 -60 -58 -19 -189 -7 -249 24 -55 28 -93 68 -93 98 0 23 14 24 71
3z"/>
<path d="M3103 7129 c-80 -15 -157 -72 -206 -151 -25 -41 -21 -51 13 -33 38
20 65 19 85 -2 25 -25 17 -162 -14 -221 -27 -53 -78 -81 -115 -64 -24 10 -33
31 -56 120 -11 44 -28 53 -50 27 -19 -22 -25 -145 -10 -190 20 -60 84 -122
143 -140 133 -40 280 4 407 122 l69 64 6 -28 c13 -61 49 -150 78 -196 90 -144
282 -143 343 0 20 47 18 54 -11 41 -22 -10 -29 -9 -47 9 -39 39 -21 218 24
247 26 16 40 -4 50 -76 4 -34 12 -66 17 -71 19 -19 35 28 39 118 4 83 2 99
-21 147 -49 108 -155 141 -266 84 -45 -24 -116 -90 -143 -135 l-23 -36 -6 85
c-14 203 -133 312 -306 279z m118 -101 c7 -92 -72 -390 -118 -440 -21 -23 -49
-23 -55 0 -13 49 66 346 112 420 20 32 59 45 61 20z m113 -150 c11 -15 16 -45
16 -89 0 -66 0 -67 -45 -108 -50 -46 -69 -51 -85 -20 -28 51 40 239 86 239 7
0 20 -10 28 -22z m352 -65 c15 -58 -30 -266 -70 -327 -18 -29 -51 -34 -60 -10
-24 63 33 280 92 347 21 24 31 21 38 -10z m-162 -68 c13 -52 -27 -165 -59
-165 -34 0 -47 98 -19 140 36 54 68 64 78 25z"/>
<path d="M1787 7075 c-56 -54 -66 -145 -22 -211 40 -62 130 -81 210 -45 l40
18 -44 22 c-79 41 -128 113 -132 195 -2 26 -6 49 -10 51 -3 3 -22 -11 -42 -30z"/>
<path d="M5466 6905 c-11 -58 -40 -109 -86 -147 -46 -40 -98 -58 -166 -58 -70
0 -78 8 -54 55 11 21 17 42 14 46 -3 5 -36 9 -73 9 -59 0 -74 4 -123 34 l-56
33 -17 -36 c-27 -53 -32 -194 -11 -259 10 -28 26 -62 37 -76 22 -28 49 -35 49
-12 0 8 8 24 19 37 l19 23 71 -18 c130 -34 282 6 346 90 60 78 81 199 51 284
l-13 35 -7 -40z"/>
<path d="M6967 6892 c-66 -100 -225 -182 -354 -182 -30 0 -43 -4 -43 -14 0 -7
19 -51 42 -97 34 -69 60 -103 147 -190 104 -104 184 -158 216 -146 38 15 69
259 64 489 -4 123 -6 140 -25 158 l-21 21 -26 -39z"/>
<path d="M2402 6895 c-36 -30 -39 -52 -17 -95 17 -32 51 -46 90 -36 24 6 55
51 55 80 0 23 -42 64 -71 71 -19 5 -34 0 -57 -20z"/>
<path d="M2145 6773 c-152 -22 -269 -106 -313 -224 -24 -66 -55 -216 -47 -229
3 -6 22 -10 41 -10 19 0 72 -9 118 -21 73 -18 91 -19 140 -9 127 26 231 106
288 221 44 90 45 111 5 152 -19 19 -38 48 -42 65 -3 17 -12 35 -18 40 -14 12
-129 22 -172 15z m102 -112 c13 -25 34 -56 48 -71 30 -32 32 -53 4 -81 -53
-53 -158 47 -159 152 0 45 6 51 50 47 30 -3 38 -9 57 -47z m-241 -68 c16 -79
70 -151 123 -168 39 -12 21 -46 -31 -59 -78 -18 -177 87 -165 177 9 68 61 103
73 50z"/>
<path d="M2502 6707 c-22 -23 -29 -71 -14 -94 4 -6 20 -18 35 -26 38 -20 77
-8 100 30 44 77 -61 154 -121 90z"/>
<path d="M5585 6648 c-75 -40 -50 -143 32 -136 75 6 97 100 33 133 -34 18 -39
18 -65 3z"/>
<path d="M5787 6583 c12 -158 87 -337 183 -434 103 -104 227 -145 406 -136 85
4 121 11 224 47 l124 43 52 -17 c62 -19 137 -82 166 -140 31 -61 36 -166 10
-235 -26 -68 -59 -115 -93 -135 -26 -15 -29 -15 -54 6 -41 36 -47 85 -24 216
23 138 24 161 3 169 -40 15 -153 -82 -192 -165 -50 -110 1 -192 176 -281 23
-12 42 -25 42 -29 0 -4 -25 -53 -55 -107 -30 -55 -55 -103 -55 -107 0 -15 -21
-60 -25 -56 -3 3 -12 29 -19 59 -17 62 -135 368 -167 432 -35 69 -78 116 -129
142 -52 26 -160 48 -160 33 0 -14 43 -70 158 -203 158 -183 238 -313 261 -423
13 -61 15 -132 4 -132 -5 0 -21 32 -36 70 -35 85 -108 200 -168 260 -24 25
-83 78 -130 117 -89 74 -125 122 -153 206 -32 96 -67 146 -118 173 -15 8 -28
14 -30 14 -2 0 -3 -19 -4 -43 0 -24 -9 -76 -19 -116 -19 -79 -16 -148 10 -188
21 -31 74 -57 186 -88 127 -37 181 -68 251 -145 67 -74 151 -232 188 -354 13
-42 27 -76 31 -76 4 0 22 27 40 60 18 34 48 74 67 91 29 26 41 30 79 27 56 -4
83 -34 90 -102 3 -25 9 -46 13 -46 17 0 84 105 107 167 30 83 32 174 3 203
-40 40 -98 17 -170 -69 -38 -45 -95 -91 -114 -91 -31 0 53 167 149 295 41 55
89 129 107 165 30 59 33 73 33 155 0 82 -3 97 -33 157 -38 77 -116 155 -210
208 -52 29 -72 50 -129 130 -181 255 -297 315 -561 289 -143 -14 -213 -9 -273
20 -23 12 -43 21 -44 21 -1 0 0 -26 2 -57z m519 -148 c42 -80 77 -117 106
-113 18 2 24 11 28 43 7 47 16 65 35 65 14 0 18 -10 31 -70 9 -47 27 -73 74
-105 36 -25 50 -52 35 -67 -3 -3 -26 -1 -51 3 -62 12 -86 4 -147 -47 -53 -46
-74 -53 -83 -30 -7 18 10 52 44 88 55 60 -8 78 -98 28 -94 -52 -137 -70 -154
-64 -25 9 -19 27 19 64 62 60 40 88 -55 70 -79 -15 -130 -13 -137 6 -8 22 6
33 61 43 66 12 72 21 47 69 -26 52 -27 72 -1 72 22 0 41 -17 84 -73 34 -44 58
-59 80 -51 12 5 16 21 16 71 0 56 2 64 17 61 10 -2 32 -30 49 -63z"/>
<path d="M5196 6439 c-19 -15 -26 -30 -26 -54 0 -57 69 -94 112 -61 42 32 42
103 -1 125 -30 16 -55 13 -85 -10z"/>
<path d="M5461 6442 c-48 -24 -72 -61 -73 -110 0 -49 20 -85 65 -112 110 -68
235 66 167 178 -20 32 -71 62 -107 62 -10 0 -33 -8 -52 -18z"/>
<path d="M2437 6402 c-82 -125 -75 -300 15 -364 19 -13 51 -23 82 -25 67 -5
110 21 138 84 47 107 -9 238 -132 310 -64 38 -74 37 -103 -5z"/>
<path d="M3250 6392 c-28 -22 -39 -80 -40 -199 0 -51 -3 -93 -7 -93 -5 0 -26
33 -48 72 -72 129 -170 207 -258 208 -74 0 -107 -45 -107 -146 l0 -52 31 15
c66 33 183 -10 273 -98 l51 -51 -50 6 c-27 4 -95 9 -150 11 -90 5 -104 3 -145
-17 -78 -40 -135 -147 -128 -244 l3 -44 35 47 c69 92 210 162 332 165 66 2 78
-5 55 -30 -26 -28 -46 -86 -56 -158 -7 -44 -16 -70 -28 -79 -17 -12 -16 -17 7
-92 13 -43 23 -98 23 -123 -1 -25 -3 -56 -3 -70 -1 -14 17 -57 40 -95 29 -50
40 -79 38 -103 -2 -28 6 -41 60 -96 34 -35 62 -69 62 -75 0 -6 11 -13 25 -17
30 -7 71 17 87 51 9 21 7 29 -21 60 -17 20 -38 52 -46 73 -9 20 -25 44 -37 53
-16 12 -24 37 -34 99 -10 61 -19 88 -35 103 -21 19 -21 26 -15 129 4 65 3 108
-2 108 -5 0 -12 12 -15 26 -3 19 9 53 41 115 26 49 50 89 53 89 15 0 91 -88
112 -130 18 -37 22 -62 22 -137 l0 -92 49 27 c219 120 195 335 -42 378 -90 16
-63 35 82 56 142 20 268 -15 298 -83 7 -16 16 -29 19 -29 11 0 39 79 39 111 0
47 -25 94 -66 125 -35 27 -43 29 -133 29 -90 0 -101 -2 -173 -37 -43 -20 -98
-51 -123 -68 -53 -37 -57 -26 -15 46 35 61 82 104 116 104 33 0 30 18 -9 76
-58 85 -121 113 -167 76z"/>
<path d="M4992 6330 c-48 -45 -12 -130 54 -130 44 0 74 32 74 80 0 29 -6 43
-22 54 -31 22 -80 20 -106 -4z"/>
<path d="M2248 6250 c-60 -32 -92 -82 -92 -145 -1 -43 4 -58 23 -79 38 -40
118 -54 163 -29 4 2 -7 24 -25 49 -30 43 -32 51 -32 135 0 49 0 89 0 89 0 -1
-17 -10 -37 -20z"/>
<path d="M5219 6225 c-39 -21 -59 -59 -59 -111 0 -39 5 -51 34 -80 30 -30 40
-34 84 -34 41 0 55 5 80 28 57 53 55 130 -4 181 -39 35 -90 41 -135 16z"/>
<path d="M5685 6215 c-37 -36 -34 -86 6 -119 17 -14 39 -26 49 -26 10 0 32 12
49 26 24 20 31 34 31 60 0 45 -37 84 -80 84 -19 0 -40 -9 -55 -25z"/>
<path d="M1790 6200 c0 -71 54 -130 119 -130 39 0 98 29 130 64 l24 26 -41 -6
c-53 -7 -157 19 -199 52 l-33 25 0 -31z"/>
<path d="M4952 6081 c-59 -38 -71 -119 -24 -169 50 -54 111 -54 163 -2 24 23
29 37 29 74 0 91 -92 144 -168 97z"/>
<path d="M5482 6083 c-21 -8 -43 -61 -36 -87 14 -58 85 -77 130 -35 62 58 -12
155 -94 122z"/>
<path d="M1725 5995 c8 -62 38 -126 66 -144 51 -31 149 -3 254 73 27 20 47 36
44 36 -4 0 -31 -5 -60 -11 -70 -13 -157 -13 -194 1 -17 6 -50 30 -74 53 l-43
42 7 -50z"/>
<path d="M5704 5972 c-65 -52 -47 -142 33 -166 32 -10 89 20 103 54 35 85 -66
169 -136 112z"/>
<path d="M5198 5903 c-50 -58 -14 -132 65 -133 28 0 67 45 67 78 0 60 -94 98
-132 55z"/>
<path d="M2307 5862 c-24 -26 -59 -111 -106 -256 -60 -184 -75 -210 -106 -180
-19 19 -16 54 16 213 28 138 25 201 -11 201 -42 0 -66 -57 -104 -251 -34 -167
-52 -201 -91 -163 -13 13 -16 38 -14 144 0 71 -2 133 -6 139 -12 20 -45 -8
-65 -55 -47 -108 -71 -368 -51 -542 27 -229 81 -301 164 -218 39 39 87 129 87
163 0 13 -11 45 -25 71 -27 50 -31 85 -15 126 11 30 52 59 72 51 8 -3 43 -38
79 -77 55 -62 63 -77 63 -109 -2 -43 -40 -115 -140 -259 -122 -177 -164 -289
-164 -442 0 -216 69 -345 256 -478 47 -33 86 -60 88 -60 10 0 36 98 36 137 0
72 -24 112 -134 218 -122 119 -141 153 -141 250 0 65 27 166 44 165 3 -1 18
-18 33 -40 31 -44 70 -64 141 -72 l48 -6 -20 22 c-11 12 -30 43 -42 70 -41 93
-13 197 127 463 172 330 261 615 208 668 -16 15 -19 15 -40 -7 -12 -13 -39
-68 -60 -123 -58 -158 -129 -275 -167 -275 -18 0 -19 5 -14 48 3 26 28 115 56
198 55 164 67 219 57 259 -8 30 -35 33 -59 7z"/>
<path d="M5443 5845 c-69 -30 -95 -130 -50 -196 29 -43 60 -59 121 -59 43 0
53 4 87 39 35 34 39 44 39 87 0 111 -95 174 -197 129z"/>
<path d="M3710 5803 c0 -4 5 -25 10 -45 23 -80 -12 -136 -145 -233 -160 -116
-185 -156 -146 -232 25 -51 66 -86 174 -152 96 -59 119 -84 106 -119 -14 -37
-74 -30 -142 18 l-57 39 -35 -46 c-42 -56 -65 -127 -65 -204 0 -200 210 -378
433 -367 61 3 61 4 32 16 -110 48 -161 163 -121 274 7 21 39 80 71 132 92 152
87 197 -29 299 -89 77 -86 115 14 239 90 111 90 201 2 299 -46 51 -102 96
-102 82z"/>
<path d="M2804 5742 c-122 -102 -203 -224 -239 -357 -9 -33 -20 -129 -25 -216
-8 -169 -21 -212 -66 -229 -38 -15 -50 -12 -82 15 -34 28 -42 24 -42 -21 0
-69 43 -114 110 -114 56 0 97 27 125 83 24 48 25 59 25 221 0 94 5 191 10 216
11 48 41 123 47 117 2 -2 5 -44 7 -93 3 -64 13 -115 36 -184 41 -126 60 -206
60 -257 0 -46 -15 -94 -33 -105 -23 -15 -66 -8 -80 12 -8 11 -17 17 -20 13
-13 -12 -7 -79 9 -102 36 -50 122 -62 170 -22 69 56 70 157 4 346 -78 223 -92
280 -87 375 5 90 22 160 37 160 6 0 10 -15 10 -34 0 -54 26 -175 53 -246 29
-78 102 -216 165 -314 119 -187 149 -279 102 -326 -39 -39 -120 -12 -120 40 0
27 -16 25 -36 -5 -36 -56 -12 -146 49 -184 41 -25 124 -28 166 -6 66 33 109
122 96 194 -11 60 -59 150 -158 292 -153 221 -201 308 -237 428 -19 62 -22 88
-17 179 3 67 11 121 21 145 9 20 15 37 13 37 -2 0 -35 -26 -73 -58z"/>
<path d="M4921 5717 c-34 -77 -48 -165 -32 -216 14 -47 56 -100 98 -121 140
-73 193 -121 193 -173 -1 -82 -59 -89 -136 -17 -60 56 -98 65 -130 29 -17 -19
-19 -35 -16 -133 3 -118 -5 -155 -40 -193 -12 -13 -19 -25 -17 -28 9 -8 109
23 152 48 23 14 71 57 105 96 46 52 70 71 88 71 38 0 39 -25 4 -101 -35 -77
-35 -104 3 -140 52 -50 127 -62 171 -28 34 27 30 46 -25 131 -49 76 -49 108
-2 122 20 5 54 5 85 0 61 -10 70 -27 42 -80 -27 -51 -12 -60 74 -46 82 14 190
46 216 65 17 13 17 15 2 44 -28 56 -211 193 -256 193 -8 0 -9 -15 -5 -43 9
-60 -12 -81 -72 -74 -77 8 -121 57 -108 119 9 38 43 62 143 100 53 21 99 46
121 67 l36 34 -45 12 c-25 7 -76 26 -114 44 -84 38 -124 40 -155 7 -22 -23
-23 -30 -16 -100 8 -86 -3 -116 -40 -116 -39 0 -48 31 -41 139 6 88 4 100 -16
140 -20 39 -34 50 -113 90 -70 36 -93 53 -105 78 -8 18 -17 33 -20 33 -3 0
-16 -24 -29 -53z"/>
<path d="M5710 5688 c-43 -46 -8 -118 58 -118 61 0 93 66 56 118 -21 31 -85
31 -114 0z"/>
<path d="M5748 5393 l-3 -68 -64 -10 c-60 -9 -62 -11 -45 -26 11 -9 51 -36 89
-59 113 -68 160 -121 166 -185 4 -58 -1 -75 -38 -116 -46 -51 -111 -84 -220
-112 -46 -12 -84 -26 -84 -32 1 -5 16 -14 33 -18 50 -12 88 -28 88 -38 0 -4
-13 -31 -30 -59 -16 -28 -30 -55 -30 -61 0 -5 27 5 61 21 71 36 80 33 104 -41
9 -27 20 -49 25 -49 10 0 20 52 20 114 1 76 17 135 52 187 36 53 79 83 107 74
55 -17 69 -167 25 -282 -40 -107 -48 -133 -41 -139 3 -3 26 10 52 29 26 20 53
33 61 30 7 -3 30 -27 50 -54 34 -47 64 -64 64 -36 0 7 -5 40 -11 72 -10 53 -9
60 7 72 10 7 37 13 60 13 60 0 63 15 7 44 -113 57 -197 167 -191 248 3 43 3
43 44 46 73 5 126 -40 208 -176 43 -71 56 -69 56 9 0 63 13 72 91 63 74 -8 73
1 -6 46 -65 37 -68 53 -25 117 26 38 37 63 28 63 -2 0 -37 -14 -78 -31 -96
-41 -238 -53 -270 -24 -26 23 -25 46 1 79 28 36 64 53 159 75 108 25 117 36
45 52 -65 14 -75 29 -52 73 24 46 38 86 29 86 -5 0 -26 -13 -48 -28 -70 -51
-78 -50 -131 23 -35 48 -45 24 -32 -70 17 -126 -3 -209 -56 -233 -38 -17 -70
5 -86 58 -11 35 -9 56 9 144 35 166 30 183 -39 121 -22 -19 -47 -35 -57 -35
-9 1 -32 21 -50 45 -18 25 -37 45 -42 45 -5 0 -10 -30 -12 -67z"/>
<path d="M6726 4920 c-84 -26 -119 -124 -76 -217 10 -24 18 -43 16 -43 -2 0
-18 8 -37 18 -22 11 -57 17 -97 17 -60 0 -65 -2 -96 -36 -44 -48 -53 -96 -27
-153 17 -40 27 -48 112 -91 52 -25 109 -56 127 -67 38 -23 82 -94 82 -131 0
-44 25 -32 75 35 78 104 114 187 136 312 35 202 -82 396 -215 356z"/>
<path d="M3893 4774 c-43 -94 -20 -159 77 -216 116 -69 119 -127 10 -184 -45
-23 -207 -31 -293 -14 -81 16 -129 41 -193 102 -83 78 -118 52 -111 -83 8
-166 136 -328 309 -393 101 -38 252 -28 371 23 56 24 139 99 173 157 51 88 69
224 42 318 -18 59 -89 126 -166 156 -86 34 -137 79 -159 141 -10 27 -21 49
-26 49 -4 0 -20 -25 -34 -56z m287 -419 c26 -31 -12 -134 -76 -204 -38 -43
-80 -64 -116 -59 -20 3 -23 9 -26 58 -6 105 0 117 83 156 40 19 79 41 85 49
16 19 34 19 50 0z"/>
<path d="M4883 4759 c-204 -34 -394 -196 -464 -394 -78 -222 -14 -478 158
-635 97 -89 210 -135 353 -146 296 -21 540 172 585 463 l7 43 -39 -17 c-71
-30 -138 -43 -248 -50 -177 -10 -286 17 -392 98 -29 21 -59 39 -68 39 -18 0
-35 -39 -35 -81 0 -27 -3 -29 -35 -29 -33 0 -35 -2 -35 -34 0 -27 8 -41 40
-69 79 -72 207 -84 340 -32 35 14 72 25 81 25 26 0 32 -34 14 -70 -17 -32 -15
-35 30 -42 32 -5 32 -51 -1 -77 -39 -31 -98 -44 -194 -43 -238 0 -420 150
-420 347 0 132 53 193 209 242 85 26 121 50 121 78 0 16 -29 49 -51 58 -10 4
-7 12 14 31 26 24 35 26 127 26 109 0 126 4 140 31 18 33 -7 66 -61 80 -27 7
-49 16 -49 19 0 15 37 38 70 45 61 12 70 16 70 34 0 55 -127 83 -267 60z"/>
<path d="M5266 4685 c21 -52 17 -91 -21 -204 -40 -116 -42 -149 -16 -207 22
-49 60 -80 113 -95 64 -17 117 -3 164 45 80 79 81 205 5 324 -22 33 -54 71
-73 85 -34 26 -158 87 -177 87 -6 0 -3 -16 5 -35z m136 -127 c47 -39 62 -106
31 -140 -20 -22 -56 -23 -77 -2 -19 18 -19 24 -5 97 12 58 23 67 51 45z"/>
<path d="M2391 4644 c-35 -29 -54 -86 -45 -133 5 -26 3 -31 -12 -31 -31 0 -82
-37 -100 -71 -22 -43 -14 -112 17 -145 33 -35 88 -49 139 -36 39 10 41 9 56
-19 18 -36 69 -69 107 -69 41 0 91 24 116 56 18 23 22 39 20 83 -3 54 -2 55
28 63 40 10 80 52 94 98 10 32 9 44 -7 76 -22 45 -75 84 -113 84 -14 0 -38 -7
-54 -14 -26 -14 -28 -14 -43 15 -36 70 -144 93 -203 43z m188 -185 c28 -27 29
-89 1 -114 -32 -29 -88 -25 -116 9 -29 33 -30 65 -4 99 31 39 80 42 119 6z"/>
<path d="M5665 4468 c5 -24 0 -59 -15 -109 -32 -107 -18 -159 52 -195 57 -30
133 -6 169 53 32 51 24 139 -17 189 -33 41 -104 82 -159 91 l-36 6 6 -35z"/>
<path d="M2945 4377 c-44 -21 -67 -51 -63 -84 4 -34 34 -51 162 -90 146 -44
224 -117 246 -232 25 -128 51 -195 89 -231 61 -58 145 -93 223 -94 87 -1 122
21 126 82 4 49 -16 94 -66 152 -49 58 -120 90 -199 90 -99 0 -95 -4 -139 148
-13 46 -33 100 -43 120 -23 44 -85 108 -126 130 -41 21 -171 27 -210 9z m615
-498 c72 -43 102 -107 60 -129 -41 -22 -147 31 -172 86 -9 19 -8 28 7 44 23
26 61 25 105 -1z"/>
<path d="M4985 4270 c0 -95 2 -103 24 -121 36 -29 87 -25 122 10 18 18 29 40
29 56 0 68 -64 136 -140 150 l-35 6 0 -101z"/>
<path d="M6160 4341 c-50 -16 -88 -41 -126 -83 -166 -180 -198 -206 -310 -238
-112 -34 -119 -39 -118 -92 0 -26 8 -57 18 -73 16 -25 22 -27 63 -22 60 7 130
56 275 195 127 121 161 138 174 85 14 -54 -33 -106 -221 -250 -44 -34 -88 -75
-97 -91 -16 -27 -16 -30 2 -59 57 -94 198 -140 289 -94 49 25 128 112 202 222
64 96 70 102 93 93 25 -10 29 -41 10 -97 -36 -110 -124 -205 -256 -277 -61
-33 -84 -51 -86 -68 -5 -31 32 -87 67 -102 27 -11 34 -9 88 28 118 81 271 262
333 395 94 200 23 429 -158 510 -51 22 -196 33 -242 18z m247 -92 c78 -38 121
-126 80 -166 -8 -9 -38 -18 -64 -20 -58 -6 -120 20 -146 61 -22 33 -22 104 0
128 22 24 76 23 130 -3z"/>
<path d="M2782 4099 c-143 -24 -230 -151 -200 -293 34 -161 150 -264 309 -274
62 -4 82 -1 116 17 72 36 106 122 83 206 -27 96 -139 180 -213 159 -29 -9 -32
-14 -35 -51 -3 -34 1 -44 24 -62 32 -26 94 -43 137 -39 27 2 33 -1 35 -19 8
-55 -90 -97 -174 -74 -128 34 -197 199 -118 282 97 101 305 37 381 -119 22
-46 28 -73 31 -146 3 -80 0 -97 -20 -136 -13 -26 -41 -57 -66 -75 -43 -29 -47
-30 -161 -30 -115 0 -118 1 -193 38 -164 81 -247 239 -235 450 l5 98 -31 -19
c-83 -48 -132 -164 -125 -293 4 -65 11 -91 42 -155 70 -141 207 -258 356 -305
76 -24 220 -28 290 -10 173 47 263 197 240 400 -22 194 -108 335 -250 410 -49
26 -72 33 -155 45 -11 2 -44 -1 -73 -5z"/>
<path d="M4146 3954 c-19 -18 -19 -19 -5 -64 13 -45 14 -99 1 -112 -7 -7 -20
-3 -41 13 -19 14 -49 24 -83 27 -78 6 -110 -20 -171 -138 -26 -52 -58 -105
-69 -117 -33 -35 -82 -46 -180 -41 -100 6 -110 0 -88 -52 29 -70 132 -128 240
-137 241 -19 479 153 441 318 -14 60 -14 58 15 69 21 8 34 6 61 -10 39 -23 64
-25 81 -8 18 18 15 75 -4 86 -13 7 -14 13 -5 30 30 57 -3 109 -64 98 -26 -5
-35 -4 -35 7 0 20 -33 47 -58 47 -11 0 -28 -7 -36 -16z"/>
<path d="M5483 3670 c-58 -12 -110 -38 -131 -65 -14 -17 -16 -34 -12 -80 4
-53 8 -61 36 -77 51 -30 163 -40 245 -23 74 15 133 45 143 71 3 9 6 38 6 64 0
57 -22 84 -79 100 -54 15 -161 20 -208 10z"/>
<path d="M4370 3572 c0 -40 -62 -142 -117 -192 -78 -71 -141 -101 -292 -137
-27 -6 -37 -16 -46 -42 -26 -77 -108 -119 -210 -107 -85 10 -102 22 -119 80
-21 72 -85 167 -141 210 -27 20 -51 36 -54 36 -3 0 -6 -26 -7 -58 -1 -70 -29
-128 -81 -171 -50 -42 -119 -61 -217 -61 l-79 0 24 -26 c37 -41 129 -99 184
-118 27 -9 88 -19 135 -23 96 -7 126 -19 240 -98 140 -98 234 -134 406 -156
167 -21 300 1 458 74 72 33 90 39 94 27 10 -31 70 -79 113 -90 85 -23 276 7
320 51 10 10 19 28 19 39 0 19 -7 20 -114 20 -205 0 -326 63 -407 210 -23 42
-41 60 -59 60 -10 0 -50 -27 -91 -60 -126 -103 -268 -147 -445 -138 -71 4
-104 11 -140 29 -79 39 -68 46 68 46 143 0 226 16 332 68 92 44 114 60 191
133 103 99 144 95 207 -23 84 -156 238 -242 338 -190 44 23 75 72 105 165 40
129 41 130 73 130 58 0 71 54 22 92 -21 17 -34 39 -43 73 -11 46 -15 50 -45
53 -27 3 -34 -1 -42 -22 -11 -30 -14 -30 -95 -11 -63 15 -216 19 -249 6 -14
-5 -28 2 -55 31 -37 39 -145 108 -168 108 -7 0 -13 -8 -13 -18z m468 -278 c68
-76 -40 -177 -122 -113 -46 36 -32 115 25 138 34 14 70 5 97 -25z"/>
<path d="M5790 3405 c-130 -77 -307 -106 -429 -69 -30 8 -64 13 -77 10 -28 -7
-95 -93 -123 -156 -11 -25 -25 -75 -31 -113 -11 -63 -11 -70 11 -115 16 -32
37 -55 64 -70 37 -21 48 -23 155 -18 261 10 502 142 586 321 41 86 27 201 -30
240 -30 22 -43 19 -126 -30z m-30 -145 c13 -25 -1 -94 -27 -123 -56 -67 -124
-104 -220 -120 -34 -6 -64 -9 -67 -6 -2 2 2 29 10 59 8 30 14 73 14 96 l0 41
81 11 c45 7 105 23 133 36 63 30 63 30 76 6z"/>
<path d="M4215 2182 c-101 -62 -183 -242 -214 -475 -25 -180 -5 -366 65 -604
4 -16 -4 -32 -37 -68 -62 -67 -109 -89 -194 -89 -62 0 -76 3 -114 29 -75 51
-109 152 -84 250 16 62 17 171 2 216 -15 43 -47 79 -71 79 -77 0 -138 -111
-154 -282 -11 -121 -77 -218 -148 -218 -68 0 -112 64 -171 250 -60 188 -77
231 -103 261 -13 16 -32 29 -41 29 -33 0 -100 -59 -171 -152 -159 -208 -169
-216 -200 -166 -11 18 -29 74 -41 126 -12 51 -26 95 -31 98 -15 9 -66 -16 -82
-41 -9 -13 -32 -88 -51 -167 -20 -79 -50 -188 -67 -243 -17 -55 -33 -125 -35
-156 -5 -51 -3 -58 17 -69 12 -6 32 -9 45 -6 28 7 133 94 306 253 141 129 215
179 253 169 43 -11 79 -61 152 -211 77 -159 85 -171 124 -198 61 -42 113 -8
205 133 79 121 99 122 166 10 49 -83 101 -136 148 -151 48 -16 167 -6 223 18
25 12 81 44 123 72 43 28 86 51 95 51 10 0 45 -25 79 -55 90 -80 112 -90 204
-89 71 1 86 5 159 42 l81 41 34 -29 c57 -51 97 -62 193 -57 160 9 272 73 413
235 87 100 112 117 136 88 6 -7 27 -60 46 -116 50 -153 112 -216 202 -207 161
16 318 222 392 512 31 123 36 222 14 265 -16 31 -23 35 -61 38 -40 3 -47 0
-81 -36 -62 -64 -81 -179 -51 -304 25 -100 -10 -253 -68 -298 -73 -58 -139 18
-196 225 -13 50 -36 133 -51 185 -34 125 -61 180 -87 180 -34 0 -72 -53 -107
-151 -115 -319 -242 -469 -399 -469 -50 0 -115 21 -127 41 -3 4 16 22 42 40
162 112 228 222 204 341 -40 190 -169 258 -301 159 -133 -100 -207 -277 -197
-475 l4 -98 -36 -15 c-70 -30 -173 6 -240 83 -58 65 -58 71 8 202 117 233 145
348 145 597 1 140 -2 180 -18 227 -20 63 -72 130 -117 153 -38 20 -98 19 -134
-3z m117 -233 c58 -68 45 -331 -27 -545 -32 -94 -52 -126 -78 -122 -34 5 -48
68 -54 244 -8 226 21 399 74 440 23 17 63 10 85 -17z m559 -579 c64 -35 65
-185 2 -260 -25 -30 -71 -60 -92 -60 -6 0 -21 19 -33 43 -16 31 -22 59 -22
112 0 82 19 126 67 155 36 23 50 24 78 10z"/>
<path d="M3549 2126 c-61 -42 -86 -133 -54 -201 19 -39 52 -58 100 -58 46 0
84 28 113 83 40 79 21 159 -43 186 -49 20 -75 18 -116 -10z"/>
<path d="M2000 2034 c-73 -66 -80 -164 -23 -325 35 -100 37 -109 36 -239 0
-238 -56 -423 -158 -519 -59 -56 -100 -71 -193 -71 -138 0 -229 86 -273 260
-10 40 -14 117 -13 280 1 198 4 243 27 374 39 219 35 256 -26 256 -71 -1 -132
-46 -165 -123 -16 -38 -57 -206 -73 -297 -20 -121 -18 -380 5 -470 51 -204
157 -325 331 -376 88 -26 251 -24 327 4 191 70 319 245 375 512 24 117 29 461
9 578 -24 138 -56 192 -113 192 -24 0 -44 -10 -73 -36z"/>
<path d="M7535 1591 c-111 -53 -187 -152 -279 -365 -51 -116 -66 -142 -84
-144 -35 -5 -57 60 -81 237 -22 162 -37 203 -70 194 -36 -9 -59 -48 -99 -165
-69 -205 -173 -354 -285 -406 -84 -40 -218 -25 -246 26 -15 28 -2 39 91 76
181 73 238 135 238 259 0 94 -55 182 -135 218 -143 65 -332 -63 -395 -269 -25
-79 -27 -216 -4 -291 18 -61 70 -123 128 -153 58 -29 184 -36 262 -13 132 38
255 149 339 306 18 34 35 57 38 53 2 -5 19 -66 36 -136 33 -137 52 -192 78
-220 23 -26 70 -23 96 6 12 13 61 111 110 218 127 282 193 385 271 422 53 25
83 21 101 -13 24 -48 62 -71 115 -71 57 0 93 25 110 76 14 41 7 76 -22 117
-32 45 -90 67 -178 67 -62 0 -85 -5 -135 -29z m-1034 -211 c44 -24 63 -114 35
-168 -21 -40 -65 -78 -116 -101 -54 -25 -76 -26 -84 -5 -10 27 -7 145 6 186
22 74 102 118 159 88z"/>
</g>
</svg>
