<?xml version="1.0" standalone="no"?>
<!DOCTYPE svg PUBLIC "-//W3C//DTD SVG 20010904//EN"
 "http://www.w3.org/TR/2001/REC-SVG-20010904/DTD/svg10.dtd">
<svg version="1.0" xmlns="http://www.w3.org/2000/svg"
 width="866.000000pt" height="650.000000pt" viewBox="0 0 866.000000 650.000000"
 preserveAspectRatio="xMidYMid meet">

<g transform="translate(0.000000,650.000000) scale(0.100000,-0.100000)"
fill="#000000" stroke="none">
<path d="M6705 4750 c-35 -34 -184 -118 -266 -150 -265 -102 -643 -144 -1106
-122 -358 17 -612 42 -1433 142 -710 86 -1101 116 -1410 107 -204 -6 -313 -22
-453 -68 -287 -94 -510 -292 -643 -574 -187 -398 -225 -968 -103 -1575 17 -84
90 -401 95 -408 3 -5 383 -112 399 -112 8 0 35 16 61 35 115 88 272 158 459
205 261 66 487 84 980 77 394 -5 480 -11 1250 -77 874 -75 1049 -84 1428 -77
300 5 390 15 552 62 199 58 338 137 465 265 119 118 191 239 254 420 79 227
112 485 103 809 -8 273 -32 437 -103 691 -61 217 -39 193 -273 288 -111 45
-210 82 -219 82 -10 0 -26 -9 -37 -20z m-3794 -120 c270 -21 508 -52 1319
-169 815 -118 1108 -145 1585 -145 276 -1 382 3 500 17 263 32 472 80 659 153
133 52 124 56 157 -61 38 -134 85 -371 105 -530 26 -195 23 -534 -4 -685 -57
-311 -149 -501 -326 -675 -220 -215 -456 -292 -928 -302 -353 -8 -607 12
-1428 112 -896 109 -1081 125 -1536 132 -453 7 -670 -10 -949 -73 -197 -45
-421 -131 -542 -207 -24 -15 -44 -27 -47 -27 -14 0 -95 376 -125 585 -91 623
-8 1151 232 1470 101 134 281 278 405 325 90 34 234 68 329 78 125 13 436 14
594 2z"/>
<path d="M2810 3415 l0 -595 150 0 150 0 0 423 c0 232 -3 500 -7 595 l-6 172
-144 0 -143 0 0 -595z"/>
<path d="M3290 3415 l0 -595 145 0 145 0 0 357 c0 196 2 354 5 351 3 -3 39
-144 80 -314 41 -170 80 -328 86 -351 l12 -43 147 0 147 0 12 43 c6 23 45 184
87 357 41 173 77 316 80 319 2 2 4 -158 4 -357 l0 -362 150 0 150 0 -2 593 -3
592 -237 3 -236 2 -20 -87 c-11 -49 -44 -196 -73 -328 -29 -132 -55 -243 -59
-247 -3 -4 -36 135 -74 310 -37 174 -70 325 -73 335 -4 16 -24 17 -239 17
l-234 0 0 -595z"/>
<path d="M6241 3995 c-213 -48 -392 -219 -452 -430 -21 -75 -18 -256 5 -325
56 -164 168 -297 308 -364 288 -138 617 -42 780 229 169 282 70 662 -215 824
-123 70 -294 96 -426 66z m247 -297 c193 -91 242 -345 98 -507 -61 -68 -183
-110 -268 -91 -155 33 -258 157 -258 310 0 226 230 380 428 288z"/>
<path d="M1700 3405 l0 -595 323 0 c347 0 401 6 495 54 50 25 120 94 145 142
8 16 21 57 27 91 14 71 1 171 -30 232 -18 37 -94 114 -120 123 -10 3 -2 18 28
48 51 53 72 112 72 201 0 113 -37 186 -121 240 -80 51 -147 59 -501 59 l-318
0 0 -595z m573 344 c58 -16 77 -40 77 -98 0 -38 -6 -56 -24 -78 -21 -25 -32
-28 -98 -31 l-74 -4 -45 -100 c-24 -55 -45 -104 -47 -109 -2 -5 45 -9 105 -9
179 0 223 -25 231 -128 4 -51 1 -62 -23 -90 -36 -43 -77 -52 -236 -52 -108 0
-138 3 -142 14 -8 20 -9 659 -1 679 5 15 23 17 123 17 64 0 133 -5 154 -11z"/>
<path d="M4720 3406 c0 -322 -1 -589 -2 -593 -5 -14 590 -15 667 -3 152 26
262 104 306 220 24 64 26 187 2 255 -16 48 -100 147 -133 157 -11 4 -6 15 24
48 62 69 79 119 74 214 -7 132 -62 212 -174 257 -57 23 -68 24 -411 27 l-353
3 0 -585z m584 334 c44 -16 66 -46 66 -90 0 -83 -30 -109 -133 -119 l-69 -6
-48 -105 -47 -105 132 -5 c147 -6 176 -16 201 -75 18 -43 18 -77 0 -120 -25
-59 -59 -69 -236 -70 l-155 0 -3 353 -2 352 134 0 c74 0 146 -4 160 -10z"/>
<path d="M7224 2526 c-88 -39 -115 -161 -54 -239 28 -35 100 -61 144 -53 69
13 126 82 126 153 0 109 -115 183 -216 139z m125 -24 c105 -56 85 -211 -31
-243 -51 -13 -119 15 -142 60 -62 120 57 245 173 183z"/>
<path d="M7230 2386 c0 -70 3 -86 15 -86 11 0 15 11 15 41 0 36 2 40 23 37 16
-2 24 -13 31 -40 12 -48 38 -52 30 -5 -3 17 -8 38 -10 45 -2 7 2 22 9 32 20
34 -2 55 -62 58 l-51 3 0 -85z m78 65 c23 -14 10 -46 -21 -49 -24 -3 -27 0
-27 27 0 32 19 41 48 22z"/>
</g>
</svg>
