<?xml version="1.0" standalone="no"?>
<!DOCTYPE svg PUBLIC "-//W3C//DTD SVG 20010904//EN"
 "http://www.w3.org/TR/2001/REC-SVG-20010904/DTD/svg10.dtd">
<svg version="1.0" xmlns="http://www.w3.org/2000/svg"
 width="866.000000pt" height="650.000000pt" viewBox="0 0 866.000000 650.000000"
 preserveAspectRatio="xMidYMid meet">

<g transform="translate(0.000000,650.000000) scale(0.100000,-0.100000)"
fill="#000000" stroke="none">
<path d="M4284 5577 c-22 -40 -184 -323 -358 -630 l-318 -557 217 -383 c120
-210 281 -493 358 -629 78 -137 144 -248 148 -248 4 0 136 228 295 508 158
279 319 562 357 629 l69 122 -155 273 c-85 150 -219 386 -297 523 -78 138
-170 298 -203 358 -33 59 -63 107 -66 107 -3 0 -24 -33 -47 -73z"/>
<path d="M2872 3088 c-8 -12 -432 -752 -607 -1063 -37 -66 -76 -135 -87 -152
l-20 -33 724 0 724 0 166 293 c349 615 527 933 534 950 6 16 -32 17 -709 17
-560 0 -717 -3 -725 -12z"/>
<path d="M4350 3092 c0 -4 90 -168 201 -363 110 -195 268 -474 351 -621 l152
-268 724 0 724 0 -20 33 c-20 34 -257 449 -482 847 -73 129 -152 267 -175 305
l-41 70 -717 3 c-394 1 -717 -2 -717 -6z"/>
<path d="M3602 1423 c-47 -23 -75 -67 -80 -128 -7 -85 27 -130 146 -189 71
-36 92 -59 92 -100 0 -40 -37 -76 -77 -76 -33 0 -83 51 -83 85 0 25 -2 26 -47
23 l-48 -3 3 -39 c4 -53 25 -89 69 -123 32 -25 45 -28 108 -28 59 0 77 4 107
25 50 34 72 75 72 135 0 78 -28 115 -140 181 -71 41 -96 62 -100 81 -8 31 4
54 39 71 43 21 97 -19 97 -73 0 -11 12 -15 45 -15 l45 0 0 44 c0 53 -32 104
-80 128 -44 22 -124 23 -168 1z"/>
<path d="M5270 1422 c-44 -24 -69 -58 -80 -108 -19 -84 19 -140 138 -204 82
-44 102 -64 102 -105 0 -39 -37 -75 -77 -75 -33 0 -83 51 -83 84 0 24 -3 26
-50 26 -48 0 -50 -1 -50 -27 1 -45 35 -108 76 -139 33 -26 45 -29 110 -29 81
0 110 15 152 76 20 28 23 44 20 94 -5 79 -29 111 -126 166 -43 23 -85 49 -94
57 -24 20 -23 65 2 87 41 37 102 13 114 -46 5 -27 9 -29 51 -29 45 0 45 0 45
35 0 51 -23 99 -61 126 -46 32 -140 38 -189 11z"/>
<path d="M2360 1140 l0 -290 55 0 55 0 2 173 3 172 54 -132 c30 -73 57 -133
60 -133 4 0 29 60 58 133 l52 132 0 -172 1 -173 55 0 55 0 0 290 0 291 -61 -3
-61 -3 -45 -115 c-24 -63 -47 -118 -51 -122 -4 -4 -29 49 -56 117 l-49 125
-63 0 -64 0 0 -290z"/>
<path d="M2940 1140 l0 -290 55 0 55 0 0 290 0 290 -55 0 -55 0 0 -290z"/>
<path d="M3130 1380 l0 -50 55 0 55 0 0 -240 0 -240 55 0 55 0 0 240 0 240 55
0 55 0 0 50 0 50 -165 0 -165 0 0 -50z"/>
<path d="M3970 1213 c0 -246 6 -271 73 -330 97 -85 260 -55 316 59 20 41 21
60 21 266 l0 222 -55 0 -55 0 0 -220 0 -221 -25 -24 c-18 -19 -35 -25 -69 -25
-37 0 -48 5 -70 31 l-26 31 0 214 0 214 -55 0 -55 0 0 -217z"/>
<path d="M4480 1139 l0 -291 153 4 c152 3 154 3 191 32 42 32 66 79 66 128 -1
45 -33 113 -64 133 l-26 17 25 20 c50 39 57 137 13 193 -36 46 -74 55 -223 55
l-135 0 0 -291z m262 174 c40 -36 9 -103 -48 -103 l-34 0 0 -50 0 -50 35 0
c72 0 109 -77 64 -134 -19 -24 -26 -26 -95 -26 l-74 0 0 190 0 190 67 0 c48 0
72 -5 85 -17z"/>
<path d="M4970 1140 l0 -290 55 0 55 0 0 290 0 290 -55 0 -55 0 0 -290z"/>
<path d="M5620 1140 l0 -290 55 0 55 0 0 130 0 130 120 0 120 0 0 -130 0 -130
55 0 55 0 0 290 0 290 -55 0 -55 0 0 -110 0 -110 -120 0 -120 0 0 110 0 110
-55 0 -55 0 0 -290z"/>
<path d="M6190 1140 l0 -290 55 0 55 0 0 290 0 290 -55 0 -55 0 0 -290z"/>
</g>
</svg>
