<?xml version="1.0" encoding="utf-8"?><svg xmlns="http://www.w3.org/2000/svg" xmlns:xlink="http://www.w3.org/1999/xlink">
<symbol fill="none" viewBox="0 0 32 32" id="instagram" xmlns="http://www.w3.org/2000/svg"><path stroke="currentColor" stroke-linecap="round" stroke-linejoin="round" stroke-width="2.833" d="M23.2 1.833H9.034A7.083 7.083 0 0 0 1.95 8.917v14.166a7.083 7.083 0 0 0 7.084 7.084H23.2a7.083 7.083 0 0 0 7.084-7.084V8.917A7.083 7.083 0 0 0 23.2 1.833Z"/><path stroke="currentColor" stroke-linecap="round" stroke-linejoin="round" stroke-width="2.833" d="M23.909 8.208h.014m-2.14 6.9a5.667 5.667 0 1 1-11.211 1.662 5.667 5.667 0 0 1 11.212-1.663Z"/></symbol>
<symbol fill="none" viewBox="0 0 31 32" id="linkedin" xmlns="http://www.w3.org/2000/svg"><path fill="currentColor" d="M23.183 17.746v5.714H19.87v-5.332c0-1.338-.48-2.252-1.679-2.252-.915 0-1.46.615-1.7 1.212-.086.213-.11.51-.11.807v5.565H13.07s.045-9.029 0-9.964h3.313v1.411l-.021.033h.021v-.033c.441-.68 1.226-1.646 2.986-1.646 2.18 0 3.815 1.425 3.815 4.485ZM9.603 8.691c-1.134 0-1.875.745-1.875 1.722 0 .958.72 1.723 1.831 1.723h.022c1.156 0 1.874-.766 1.874-1.723-.021-.977-.718-1.722-1.853-1.722Zm-1.68 14.77h3.315v-9.965H7.924v9.964Z"/><path fill="currentColor" d="M15.455 28.364a12.364 12.364 0 1 0 0-24.728 12.364 12.364 0 0 0 0 24.728Zm0 3.091C6.92 31.455 0 24.535 0 16 0 7.464 6.92.545 15.455.545 23.991.545 30.91 7.464 30.91 16c0 8.536-6.919 15.455-15.455 15.455Z"/></symbol>
<symbol fill="none" stroke="currentColor" stroke-linecap="round" stroke-linejoin="round" stroke-width="2" class="cicon cicon-tabler cicons-tabler-outline cicon-tabler-brand-whatsapp" viewBox="0 0 24 24" id="whatsapp" xmlns="http://www.w3.org/2000/svg"><path d="M0 0h24v24H0z" stroke="none"/><path d="m3 21 1.65-3.8a9 9 0 1 1 3.4 2.9L3 21"/><path d="M9 10a.5.5 0 0 0 1 0V9a.5.5 0 0 0-1 0v1a5 5 0 0 0 5 5h1a.5.5 0 0 0 0-1h-1a.5.5 0 0 0 0 1"/></symbol>
</svg>